<?xml version="1.0" encoding="UTF-8"?><svg id="Layer_2" xmlns="http://www.w3.org/2000/svg" viewBox="0 0 307.03 167.31"><defs><style>.cls-1{fill:#fff;}.cls-2{fill:#648968;}.cls-3{fill:none;stroke:#b0d4ad;stroke-miterlimit:10;stroke-width:3px;}.cls-4{fill:#86c188;}.cls-5{fill:#b0d4ad;}</style></defs><g id="Layer_1-2"><g><path class="cls-2" d="M161.19,10.59h34.46v3.3h-31.06v26.31h20.02l-1.34,3.3h-18.68v39.31h-3.41V10.59Z"/><path class="cls-2" d="M192.87,31.13h3.3l-.1,4.85c3.78-3.78,8.77-5.68,14.96-5.68,2.34,0,4.88,.28,7.63,.83l-.93,3.3c-2.13-.69-4.47-1.03-7.02-1.03-3.99,0-7.41,.81-10.27,2.42-2.86,1.62-4.28,3.63-4.28,6.04v40.96h-3.3V31.13Z"/><path class="cls-2" d="M245.69,82.82c-3.16,.83-6.33,1.24-9.49,1.24-5.09,0-9.13-1.25-12.12-3.77-2.99-2.51-4.49-6.28-4.49-11.3v-21.15c0-5.57,1.74-9.91,5.21-13,3.47-3.1,8.06-4.64,13.78-4.64s10.16,1.53,13.36,4.59c3.2,3.06,4.8,7.31,4.8,12.74v11.04l-33.84,1.75v8.77c0,3.92,1.25,6.91,3.77,8.98,2.51,2.06,5.79,3.1,9.85,3.1,2.48,0,5.11-.39,7.89-1.19,2.79-.79,5.55-1.94,8.31-3.46l1.44,2.68c-2.48,1.58-5.3,2.79-8.46,3.61Zm3.2-46.38c-3.03-2.17-6.5-3.25-10.42-3.25-4.33,0-8.01,1.19-11.04,3.56-3.03,2.37-4.54,6.07-4.54,11.09v9.29l30.54-1.65v-8.25c0-5.02-1.51-8.62-4.54-10.78Z"/><path class="cls-4" d="M160.98,89.35h22.8c5.5,0,9.91,1.41,13.21,4.23,3.3,2.82,4.95,7.02,4.95,12.59,0,2.62-.65,5.26-1.96,7.95-1.31,2.68-3.41,4.75-6.29,6.19l-.1,.21v.1c3.44,1.38,6.31,3.65,8.62,6.81,2.3,3.16,3.46,7.36,3.46,12.59,0,5.92-1.6,10.99-4.8,15.22-3.2,4.23-8.58,6.35-16.15,6.35h-23.73V89.35Zm33.84,26.31c2.41-2.2,3.65-5.12,3.71-8.77,.21-4.81-1.05-8.41-3.77-10.78-2.72-2.37-6.66-3.56-11.82-3.56h-18.68v26.42h21.87c3.37,0,6.26-1.1,8.67-3.3Zm2.79,38.07c3.1-3.1,4.64-7.81,4.64-14.14,0-5.16-1.55-9.34-4.64-12.54-3.1-3.2-7.19-4.8-12.28-4.8h-21.05v36.11h20.22c5.64,0,10.01-1.55,13.1-4.64Z"/><path class="cls-4" d="M248.58,154.46c-1.65,2.62-3.84,4.64-6.55,6.09-2.72,1.44-5.87,2.17-9.44,2.17-6.6,0-11.49-1.6-14.65-4.8-3.16-3.2-4.75-8-4.75-14.39v-33.64h3.3v33.95c0,10.52,5.37,15.79,16.1,15.79,4.68,0,8.48-1.29,11.4-3.87,2.92-2.58,4.38-6.21,4.38-10.89v-34.98h3.3v51.7h-3.3l.21-7.12Z"/><path class="cls-5" d="M268.93,150.18c1.43,2.46,3.52,4.49,6.27,6.1s6.04,2.42,9.88,2.42c5.49,0,9.98-1.34,13.49-4.03,3.51-2.69,5.26-6.96,5.26-12.81,0-3.16-.85-5.8-2.56-7.92-1.71-2.12-3.83-3.82-6.36-5.09-2.53-1.28-5.87-2.66-10.02-4.14-4.39-1.61-7.87-3.08-10.43-4.39-2.56-1.31-4.74-3.09-6.54-5.35-1.8-2.25-2.7-5.09-2.7-8.52,0-2.96,.76-5.76,2.29-8.42,1.52-2.66,3.83-4.81,6.91-6.46,3.08-1.65,6.88-2.47,11.39-2.47,2.99,0,5.46,.24,7.41,.71,1.95,.47,3.93,1.25,5.95,2.32l-1.01,3.23c-1.77-1.01-3.74-1.78-5.9-2.32-2.17-.54-4.25-.81-6.27-.81-5.12,0-9.35,1.26-12.67,3.78-3.32,2.52-4.99,6.1-4.99,10.74,0,2.62,.78,4.83,2.33,6.61,1.56,1.78,3.49,3.23,5.81,4.34,2.32,1.11,5.46,2.41,9.42,3.88,4.69,1.75,8.42,3.33,11.16,4.74,2.74,1.41,5.09,3.36,7.04,5.85,1.95,2.49,2.93,5.65,2.93,9.48,0,6.19-1.78,11.1-5.35,14.73-3.57,3.63-9.07,5.45-16.51,5.45-4.51,0-8.37-.92-11.57-2.77-3.2-1.85-5.64-4.24-7.32-7.16-1.68-2.93-2.58-5.97-2.7-9.13h3.11c.06,2.49,.81,4.96,2.24,7.41Z"/></g><g><path class="cls-5" d="M144.16,131.57c-.37,.51-.88,.96-1.51,1.3l-10.3,5.59c.65,.31,1.21,.83,1.58,1.52l3.61,6.79c-1.85,1.27-3.55,1.91-4.56,2.24h-13.95l-.46-.87c-.34-.63-.46-1.32-.4-1.98l-5.25,2.85H11.46c-1.51-.49-4.56-1.69-7.34-4.59-2.6-2.72-3.68-5.61-4.12-7.11C2.77,80.96,5.4,39.78,6.42,31.15c.26-2.23,.91-6.54,4.12-10.09,2.62-2.9,5.92-4.19,8.26-4.82,17.73-.15,35.46-.3,53.19-.46h.46c17.74,.16,35.46,.31,53.2,.46,2.33,.63,5.64,1.92,8.25,4.82,3.21,3.55,3.87,7.86,4.13,10.09,.95,8.02,3.29,44.13,5.84,94.41,.1,1.98,.2,3.98,.29,6.01Z"/><path class="cls-1" d="M146.91,131.3c-.42,.58-.99,1.08-1.7,1.47l-10.36,5.62c-.54,.29-.62,1.01-.19,1.44,.28,.27,.52,.6,.71,.96l4.07,7.66,4,7.54c1.05,1.95,.3,4.38-1.66,5.41l-10.24,5.45c-1.95,1.04-4.39,.29-5.42-1.66l-7.56-14.22-.52-.98c-.17-.31-.28-.63-.36-.95-.14-.59-.78-.91-1.31-.62l-4.7,2.55-6.53,3.54c-3.2,1.74-6.99-.21-7.69-3.54-.09-.42-.14-.86-.11-1.32l1.77-44.52c.16-4,4.54-6.38,8-4.33l38.28,22.78c.45,.27,.85,.59,1.18,.95,1.74,1.88,1.85,4.77,.33,6.78Z"/><rect class="cls-1" x="95.84" width="16.43" height="42.71" rx="6.01" ry="6.01"/><rect class="cls-1" x="33.36" width="16.43" height="42.71" rx="6.07" ry="6.07"/><rect class="cls-5" x="97.68" y="6.77" width="12.76" height="33.17" rx="5.12" ry="5.12"/><rect class="cls-5" x="35.19" y="6.77" width="12.76" height="33.17" rx="4.95" ry="4.95"/><path class="cls-1" d="M124.05,139.14H21.09c-5.57,0-10.09-4.52-10.09-10.09L15.36,53.15H127.71l6.42,75.9c0,5.57-4.52,10.09-10.09,10.09Z"/><g><rect class="cls-3" x="26.59" y="69.89" width="23.16" height="19.95" rx="3.55" ry="3.55"/><rect class="cls-3" x="26.59" y="102.91" width="23.16" height="19.95" rx="3.55" ry="3.55"/></g><g><rect class="cls-3" x="61.68" y="69.89" width="23.16" height="19.95" rx="3.55" ry="3.55"/><rect class="cls-3" x="61.68" y="102.91" width="23.16" height="19.95" rx="3.55" ry="3.55"/></g><rect class="cls-3" x="96.76" y="69.89" width="23.16" height="19.95" rx="3.55" ry="3.55"/><path class="cls-5" d="M144.16,131.57c-.37,.51-.88,.96-1.51,1.3l-9.18,4.98c-.48,.26-.55,.89-.17,1.28,.24,.24,.46,.53,.63,.85l3.61,6.79,3.55,6.69c.93,1.73,.27,3.88-1.47,4.8l-9.08,4.83c-1.73,.92-3.89,.26-4.81-1.47l-6.7-12.61-.46-.87c-.15-.27-.25-.56-.32-.84-.12-.53-.69-.81-1.16-.55l-4.17,2.26-5.79,3.14c-2.84,1.54-6.2-.19-6.82-3.14-.08-.37-.12-.76-.1-1.17l1.57-39.48c.14-3.55,4.03-5.66,7.09-3.84l33.95,20.2c.4,.24,.75,.52,1.05,.84,1.54,1.67,1.64,4.23,.29,6.01Z"/></g></g></svg>