<?xml version="1.0" encoding="UTF-8" standalone="no"?>
<svg
   xmlns:dc="http://purl.org/dc/elements/1.1/"
   xmlns:cc="http://creativecommons.org/ns#"
   xmlns:rdf="http://www.w3.org/1999/02/22-rdf-syntax-ns#"
   xmlns:svg="http://www.w3.org/2000/svg"
   xmlns="http://www.w3.org/2000/svg"
   viewBox="0 0 330.66666 112"
   height="112"
   width="330.66666"
   xml:space="preserve"
   id="svg2"
   version="1.1"><metadata
     id="metadata8"><rdf:RDF><cc:Work
         rdf:about=""><dc:format>image/svg+xml</dc:format><dc:type
           rdf:resource="http://purl.org/dc/dcmitype/StillImage" /></cc:Work></rdf:RDF></metadata><defs
     id="defs6" /><g
     transform="matrix(1.3333333,0,0,-1.3333333,0,112)"
     id="g10"><g
       transform="scale(0.1)"
       id="g12"><path
         id="path14"
         style="fill:#75ba42;fill-opacity:1;fill-rule:nonzero;stroke:none"
         d="m 80.3086,151.828 c 0,-81.9569 -1.1484,-94.4764 -43.2695,-99.0389 L 8.58984,49.3711 c -7.960934,-5.6914 -5.6914,-25.043 2.26956,-28.4492 36.4297,2.289 70.5898,3.4062 111.5626,3.4062 39.828,0 72.848,-1.1172 107.008,-3.4062 7.961,3.4062 10.23,23.9062 2.269,28.4492 l -23.91,3.418 c -40.98,5.6992 -43.25,17.082 -43.25,99.0389 v 191.223 c 0,39.847 3.422,45.539 23.891,62.621 20.5,17.078 50.101,30.719 88.8,30.719 72.848,0 108.129,-48.95 108.129,-121.789 V 151.828 c 0,-81.9569 -1.121,-92.2069 -43.238,-99.0389 l -22.769,-3.418 c -7.981,-5.6914 -5.704,-25.043 2.269,-28.4492 30.731,2.289 64.891,3.4062 105.859,3.4062 39.848,0 72.84,-1.1172 113.84,-3.4062 7.95,3.4062 10.239,22.7578 2.27,28.4492 l -30.731,3.418 c -40.988,4.5625 -43.257,17.082 -43.257,99.0389 V 341.91 c 0,79.692 -38.704,146.852 -146.832,146.852 -58.059,0 -112.692,-27.332 -153.692,-59.184 -3.406,2.274 -4.539,11.371 -4.539,21.621 V 690.23 c 0,50.09 2.27,107 3.422,141.161 -2.289,4.55 -6.832,6.839 -11.402,6.839 C 115.59,816.578 62.1016,799.5 33.6289,790.398 c -5.6875,-3.418 -5.6875,-19.347 0,-22.769 l 11.3906,-6.809 c 34.1407,-20.5 35.2891,-27.332 35.2891,-94.48 V 151.828" /><path
         id="path16"
         style="fill:#75ba42;fill-opacity:1;fill-rule:evenodd;stroke:none"
         d="M 848.531,488.762 C 714.219,488.762 606.07,386.32 606.07,242.879 606.07,100.59 708.531,8.39844 839.43,8.39844 c 142.289,0 240.19,102.44156 240.19,244.73056 0,140.019 -103.589,235.633 -231.089,235.633 z m 133.188,-253.84 c 0,-87.652 -30.75,-192.3634 -130.899,-192.3634 -100.172,0 -146.851,111.5434 -146.851,215.1324 0,125.207 55.781,196.93 130.902,196.93 108.149,0 146.848,-122.941 146.848,-219.699" /><path
         id="path18"
         style="fill:#75ba42;fill-opacity:1;fill-rule:nonzero;stroke:none"
         d="m 1435.8,488.762 c -188.95,0 -275.46,-130.903 -275.46,-253.84 0,-73.981 26.17,-129.774 66.01,-168.4728 39.85,-38.6992 95.62,-58.05076 155.96,-58.05076 66.01,0 151.39,31.87106 190.08,116.10156 -1.13,10.25 -11.38,18.23 -20.48,15.941 -26.18,-38.703 -60.33,-68.2808 -126.36,-68.2808 -121.79,0 -183.26,105.8398 -183.26,194.6288 0,120.652 77.4,183.27 157.08,183.27 46.68,0 88.8,-29.598 113.84,-60.329 4.56,-5.679 10.24,-7.968 15.93,-7.968 13.67,0 25.04,21.617 25.04,42.109 0,19.359 -7.96,37.559 -17.08,45.539 -30.73,13.66 -75.12,19.352 -101.3,19.352" /><path
         id="path20"
         style="fill:#75ba42;fill-opacity:1;fill-rule:nonzero;stroke:none"
         d="m 1674.81,151.828 c 0,-81.9569 -1.15,-94.4764 -43.25,-99.0389 l -28.47,-3.418 c -7.96,-5.6914 -5.69,-25.043 2.29,-28.4492 36.41,2.289 70.57,3.4062 111.55,3.4062 39.84,0 72.84,-1.1172 107,-3.4062 7.96,3.4062 10.25,23.9062 2.27,28.4492 l -23.89,3.418 c -40.99,5.6992 -43.26,17.082 -43.26,99.0389 v 191.223 c 0,39.847 3.41,45.539 23.91,62.621 20.48,17.078 50.07,30.719 88.78,30.719 72.84,0 108.13,-48.95 108.13,-121.789 V 151.828 c 0,-81.9569 -1.13,-92.2069 -43.25,-99.0389 l -22.77,-3.418 c -7.95,-5.6914 -5.68,-25.043 2.28,-28.4492 30.74,2.289 64.88,3.4062 105.85,3.4062 39.85,0 72.87,-1.1172 113.84,-3.4062 7.98,3.4062 10.25,22.7578 2.27,28.4492 l -30.72,3.418 c -40.98,4.5625 -43.27,17.082 -43.27,99.0389 V 341.91 c 0,79.692 -38.7,146.852 -146.83,146.852 -58.05,0 -112.69,-27.332 -153.66,-59.184 -3.42,2.274 -4.56,11.371 -4.56,21.621 V 690.23 c 0,50.09 2.27,107 3.41,141.161 -2.27,4.55 -6.83,6.839 -11.37,6.839 -40.99,-21.652 -94.49,-38.73 -122.94,-47.832 -5.71,-3.418 -5.71,-19.347 0,-22.769 l 11.37,-6.809 c 34.14,-20.5 35.29,-27.332 35.29,-94.48 V 151.828" /><path
         id="path22"
         style="fill:#75ba42;fill-opacity:1;fill-rule:nonzero;stroke:none"
         d="m 2248.03,311.621 c 36.7,0 101.13,15.75 156.57,64.43 46.43,40.461 72.65,94.39 72.65,148.32 0,71.16 -51.68,110.879 -108.6,115.359 -8.99,0.75 -12.75,3.739 -8.99,11.239 68.16,35.961 80.15,65.179 80.15,95.902 0,53.168 -42.71,86.129 -104.12,86.129 -57.69,0 -112.39,-38.191 -135.59,-90.629 0,-7.5 8.22,-11.992 15.72,-10.5 23.23,38.207 56.93,65.938 101.13,65.938 33.7,0 61.43,-24.739 61.43,-64.43 0,-35.957 -23.23,-58.438 -39.72,-71.91 -29.96,-24.731 -91.37,-52.438 -119.84,-65.168 -4.51,-14.242 4.48,-24.742 16.47,-26.223 17.23,18.723 44.19,36.692 80.91,36.692 65.17,0 96.64,-56.18 96.64,-122.09 0,-83.149 -85.4,-146.84 -134.1,-146.84 -20.97,0 -29.96,8.25 -39.69,22.48 -8.25,11.989 -17.98,26.969 -35.96,26.969 -17.98,0 -29.22,-14.238 -29.22,-29.219 0,-35.211 40.44,-46.449 74.16,-46.449" /></g></g></svg>